<?xml version="1.0" encoding="utf-8"?>
<!-- Generator: Adobe Illustrator 26.5.0, SVG Export Plug-In . SVG Version: 6.00 Build 0)  -->
<svg version="1.1" id="jump" xmlns="http://www.w3.org/2000/svg" xmlns:xlink="http://www.w3.org/1999/xlink" x="0px" y="0px"
	 viewBox="0 0 237.5995 377.9992" style="enable-background:new 0 0 237.5995 377.9992;" xml:space="preserve">
<path d="M153.9823,132.1703c0-34.1783-27.707-61.8853-61.8852-61.8853c-34.1783,0-61.8853,27.707-61.8853,61.8853v131.694h52.0416
	l10.3901-56.4962l6.0609,56.4962h34.2933l8.2797-45.0208l4.8298,45.0208h7.8751V132.1703z"/>
<circle style="fill:#FFFFFF;stroke:#000000;stroke-width:5;stroke-miterlimit:10;" cx="147.6486" cy="74.9204" r="72.9508"/>
<g>
	
		<line style="fill:none;stroke:#000000;stroke-width:5;stroke-miterlimit:10;" x1="175.7907" y1="50.269" x2="198.1951" y2="67.8825"/>
	
		<line style="fill:none;stroke:#000000;stroke-width:5;stroke-miterlimit:10;" x1="194.3699" y1="50.6398" x2="177.9765" y2="67.8825"/>
</g>
<g>
	<circle style="fill:#FFFFFF;stroke:#000000;stroke-width:5;stroke-miterlimit:10;" cx="137.8126" cy="53.6749" r="14.2077"/>
	<circle cx="137.7867" cy="43.1959" r="6.1877"/>
</g>
<line style="fill:none;stroke:#000000;stroke-width:16;stroke-linecap:round;stroke-miterlimit:10;" x1="138.0738" y1="177.2574" x2="206.7825" y2="151.8123"/>
<g>
	<path style="fill:#FFFFFF;" d="M40.2038,221.1775c-0.1215-0.0312-0.2425-0.0649-0.3637-0.1012
		c-4.2309-1.2688-6.7369-5.2236-5.5975-8.833l31.5712-100.0109c1.1395-3.6098,5.4986-5.5075,9.7236-4.2389
		c4.2309,1.2688,6.7369,5.2236,5.5975,8.833L49.5637,216.8374C48.4567,220.3438,44.3171,222.2348,40.2038,221.1775z"/>
</g>
<line style="fill:none;stroke:#000000;stroke-width:16;stroke-linecap:round;stroke-miterlimit:10;" x1="129.6352" y1="237.7122" x2="74.6978" y2="358.4447"/>
<line style="fill:none;stroke:#000000;stroke-width:16;stroke-linecap:round;stroke-miterlimit:10;" x1="77.8092" y1="232.7583" x2="20.0557" y2="347.1356"/>
<circle style="fill:none;stroke:#000000;stroke-width:5;stroke-miterlimit:10;" cx="165.0424" cy="97.9615" r="7.3857"/>
</svg>
