<?xml version="1.0" encoding="utf-8"?>
<!-- Generator: Adobe Illustrator 26.5.0, SVG Export Plug-In . SVG Version: 6.00 Build 0)  -->
<svg version="1.1" id="fall1" xmlns="http://www.w3.org/2000/svg" xmlns:xlink="http://www.w3.org/1999/xlink" x="0px" y="0px"
	 viewBox="0 0 237.5995 377.9992" style="enable-background:new 0 0 237.5995 377.9992;" xml:space="preserve">
<path d="M153.9823,132.1703c0-34.1783-27.707-61.8853-61.8852-61.8853c-34.1783,0-61.8853,27.707-61.8853,61.8853v131.694h52.0416
	l10.3901-56.4962l6.0609,56.4962h34.2933l8.2797-45.0208l4.8298,45.0208h7.8751V132.1703z"/>
<g>
	<circle style="fill:#FFFFFF;stroke:#000000;stroke-width:5;stroke-miterlimit:10;" cx="147.6486" cy="92.9348" r="72.9508"/>
	<g>
		
			<line style="fill:none;stroke:#000000;stroke-width:5;stroke-miterlimit:10;" x1="178.9644" y1="94.6343" x2="195.0214" y2="114.9234"/>
		
			<line style="fill:none;stroke:#000000;stroke-width:5;stroke-miterlimit:10;" x1="196.1353" y1="101.7352" x2="176.2261" y2="107.4716"/>
	</g>
	<g>
		<circle style="fill:#FFFFFF;stroke:#000000;stroke-width:5;stroke-miterlimit:10;" cx="137.8126" cy="101.7133" r="14.2077"/>
		<circle cx="137.7867" cy="111.2503" r="6.1877"/>
	</g>
</g>
<line style="fill:none;stroke:#000000;stroke-width:16;stroke-linecap:round;stroke-miterlimit:10;" x1="147.6486" y1="211.4989" x2="199.4576" y2="159.6899"/>
<line style="fill:none;stroke:#000000;stroke-width:16;stroke-linecap:round;stroke-miterlimit:10;" x1="33.8555" y1="19.984" x2="59.4525" y2="139.6888"/>
<line style="fill:none;stroke:#000000;stroke-width:16;stroke-linecap:round;stroke-miterlimit:10;" x1="98.438" y1="211.6965" x2="155.0344" y2="309.7243"/>
<line style="fill:none;stroke:#000000;stroke-width:16;stroke-linecap:round;stroke-miterlimit:10;" x1="71.9779" y1="218.2788" x2="80.2513" y2="355.468"/>
<circle style="fill:none;stroke:#000000;stroke-width:5;stroke-miterlimit:10;" cx="155.0344" cy="148.0015" r="7.3857"/>
</svg>
